<svg height="2030" width="720" xmlns="http://www.w3.org/2000/svg">
<rect height="2030" fill="#555" width="720"></rect>
<text fill="#7f7" font-family="Courier New" font-size="12" xml:space="preserve">
<tspan x="10" y="26">10 megabytes installed</tspan>
<tspan x="10" y="42"></tspan>
<tspan x="10" y="58">node_modules</tspan>
<tspan x="10" y="74">├── UNMET PEER DEPENDENCY mocha@^2.4.5 || ^3.0.0</tspan>
<tspan x="10" y="90">├─┬ mocha-webpack@0.7.0 </tspan>
<tspan x="10" y="106">│ ├─┬ anymatch@1.3.0 </tspan>
<tspan x="10" y="122">│ │ ├── arrify@1.0.1 </tspan>
<tspan x="10" y="138">│ │ └─┬ micromatch@2.3.11 </tspan>
<tspan x="10" y="154">│ │   ├─┬ arr-diff@2.0.0 </tspan>
<tspan x="10" y="170">│ │   │ └── arr-flatten@1.0.3 </tspan>
<tspan x="10" y="186">│ │   ├── array-unique@0.2.1 </tspan>
<tspan x="10" y="202">│ │   ├─┬ braces@1.8.5 </tspan>
<tspan x="10" y="218">│ │   │ ├─┬ expand-range@1.8.2 </tspan>
<tspan x="10" y="234">│ │   │ │ └─┬ fill-range@2.2.3 </tspan>
<tspan x="10" y="250">│ │   │ │   ├── is-number@2.1.0 </tspan>
<tspan x="10" y="266">│ │   │ │   ├─┬ isobject@2.1.0 </tspan>
<tspan x="10" y="282">│ │   │ │   │ └── isarray@1.0.0 </tspan>
<tspan x="10" y="298">│ │   │ │   ├── randomatic@1.1.6 </tspan>
<tspan x="10" y="314">│ │   │ │   └── repeat-string@1.6.1 </tspan>
<tspan x="10" y="330">│ │   │ ├── preserve@0.2.0 </tspan>
<tspan x="10" y="346">│ │   │ └── repeat-element@1.1.2 </tspan>
<tspan x="10" y="362">│ │   ├─┬ expand-brackets@0.1.5 </tspan>
<tspan x="10" y="378">│ │   │ └── is-posix-bracket@0.1.1 </tspan>
<tspan x="10" y="394">│ │   ├── extglob@0.3.2 </tspan>
<tspan x="10" y="410">│ │   ├── filename-regex@2.0.0 </tspan>
<tspan x="10" y="426">│ │   ├─┬ kind-of@3.1.0 </tspan>
<tspan x="10" y="442">│ │   │ └── is-buffer@1.1.5 </tspan>
<tspan x="10" y="458">│ │   ├─┬ object.omit@2.0.1 </tspan>
<tspan x="10" y="474">│ │   │ ├─┬ for-own@0.1.5 </tspan>
<tspan x="10" y="490">│ │   │ │ └── for-in@1.0.2 </tspan>
<tspan x="10" y="506">│ │   │ └── is-extendable@0.1.1 </tspan>
<tspan x="10" y="522">│ │   ├─┬ parse-glob@3.0.4 </tspan>
<tspan x="10" y="538">│ │   │ ├── glob-base@0.3.0 </tspan>
<tspan x="10" y="554">│ │   │ └── is-dotfile@1.0.2 </tspan>
<tspan x="10" y="570">│ │   └─┬ regex-cache@0.4.3 </tspan>
<tspan x="10" y="586">│ │     ├── is-equal-shallow@0.1.3 </tspan>
<tspan x="10" y="602">│ │     └── is-primitive@2.0.0 </tspan>
<tspan x="10" y="618">│ ├─┬ fs-extra@0.30.0 </tspan>
<tspan x="10" y="634">│ │ ├── graceful-fs@4.1.11 </tspan>
<tspan x="10" y="650">│ │ ├── jsonfile@2.4.0 </tspan>
<tspan x="10" y="666">│ │ ├── klaw@1.3.1 </tspan>
<tspan x="10" y="682">│ │ ├── path-is-absolute@1.0.1 </tspan>
<tspan x="10" y="698">│ │ └─┬ rimraf@2.6.1 </tspan>
<tspan x="10" y="714">│ │   └─┬ glob@7.1.1 </tspan>
<tspan x="10" y="730">│ │     ├── fs.realpath@1.0.0 </tspan>
<tspan x="10" y="746">│ │     ├─┬ inflight@1.0.6 </tspan>
<tspan x="10" y="762">│ │     │ └── wrappy@1.0.2 </tspan>
<tspan x="10" y="778">│ │     ├── inherits@2.0.3 </tspan>
<tspan x="10" y="794">│ │     ├─┬ minimatch@3.0.3 </tspan>
<tspan x="10" y="810">│ │     │ └─┬ brace-expansion@1.1.7 </tspan>
<tspan x="10" y="826">│ │     │   ├── balanced-match@0.4.2 </tspan>
<tspan x="10" y="842">│ │     │   └── concat-map@0.0.1 </tspan>
<tspan x="10" y="858">│ │     └── once@1.4.0 </tspan>
<tspan x="10" y="874">│ ├── glob-parent@2.0.0 </tspan>
<tspan x="10" y="890">│ ├── interpret@1.0.3 </tspan>
<tspan x="10" y="906">│ ├─┬ invariant@2.2.2 </tspan>
<tspan x="10" y="922">│ │ └─┬ loose-envify@1.3.1 </tspan>
<tspan x="10" y="938">│ │   └── js-tokens@3.0.1 </tspan>
<tspan x="10" y="954">│ ├─┬ is-glob@2.0.1 </tspan>
<tspan x="10" y="970">│ │ └── is-extglob@1.0.0 </tspan>
<tspan x="10" y="986">│ ├─┬ loader-utils@0.2.17 </tspan>
<tspan x="10" y="1002">│ │ ├── big.js@3.1.3 </tspan>
<tspan x="10" y="1018">│ │ ├── emojis-list@2.1.0 </tspan>
<tspan x="10" y="1034">│ │ ├── json5@0.5.1 </tspan>
<tspan x="10" y="1050">│ │ └── object-assign@4.1.1 </tspan>
<tspan x="10" y="1066">│ ├── lodash@4.17.4 </tspan>
<tspan x="10" y="1082">│ ├─┬ normalize-path@2.1.1 </tspan>
<tspan x="10" y="1098">│ │ └── remove-trailing-separator@1.0.1 </tspan>
<tspan x="10" y="1114">│ ├── object-hash@1.1.8 </tspan>
<tspan x="10" y="1130">│ ├─┬ webpack-info-plugin@0.1.0 </tspan>
<tspan x="10" y="1146">│ │ └─┬ chalk@1.1.3 </tspan>
<tspan x="10" y="1162">│ │   ├── ansi-styles@2.2.1 </tspan>
<tspan x="10" y="1178">│ │   ├── escape-string-regexp@1.0.5 </tspan>
<tspan x="10" y="1194">│ │   ├─┬ has-ansi@2.0.0 </tspan>
<tspan x="10" y="1210">│ │   │ └── ansi-regex@2.1.1 </tspan>
<tspan x="10" y="1226">│ │   ├── strip-ansi@3.0.1 </tspan>
<tspan x="10" y="1242">│ │   └── supports-color@2.0.0 </tspan>
<tspan x="10" y="1258">│ ├─┬ webpack-sources@0.1.5 </tspan>
<tspan x="10" y="1274">│ │ ├── source-list-map@0.1.8 </tspan>
<tspan x="10" y="1290">│ │ └── source-map@0.5.6 </tspan>
<tspan x="10" y="1306">│ └─┬ yargs@4.8.1 </tspan>
<tspan x="10" y="1322">│   ├─┬ cliui@3.2.0 </tspan>
<tspan x="10" y="1338">│   │ └── wrap-ansi@2.1.0 </tspan>
<tspan x="10" y="1354">│   ├── decamelize@1.2.0 </tspan>
<tspan x="10" y="1370">│   ├── get-caller-file@1.0.2 </tspan>
<tspan x="10" y="1386">│   ├── lodash.assign@4.2.0 </tspan>
<tspan x="10" y="1402">│   ├─┬ os-locale@1.4.0 </tspan>
<tspan x="10" y="1418">│   │ └─┬ lcid@1.0.0 </tspan>
<tspan x="10" y="1434">│   │   └── invert-kv@1.0.0 </tspan>
<tspan x="10" y="1450">│   ├─┬ read-pkg-up@1.0.1 </tspan>
<tspan x="10" y="1466">│   │ ├─┬ find-up@1.1.2 </tspan>
<tspan x="10" y="1482">│   │ │ ├── path-exists@2.1.0 </tspan>
<tspan x="10" y="1498">│   │ │ └─┬ pinkie-promise@2.0.1 </tspan>
<tspan x="10" y="1514">│   │ │   └── pinkie@2.0.4 </tspan>
<tspan x="10" y="1530">│   │ └─┬ read-pkg@1.1.0 </tspan>
<tspan x="10" y="1546">│   │   ├─┬ load-json-file@1.1.0 </tspan>
<tspan x="10" y="1562">│   │   │ ├─┬ parse-json@2.2.0 </tspan>
<tspan x="10" y="1578">│   │   │ │ └─┬ error-ex@1.3.1 </tspan>
<tspan x="10" y="1594">│   │   │ │   └── is-arrayish@0.2.1 </tspan>
<tspan x="10" y="1610">│   │   │ ├── pify@2.3.0 </tspan>
<tspan x="10" y="1626">│   │   │ └─┬ strip-bom@2.0.0 </tspan>
<tspan x="10" y="1642">│   │   │   └── is-utf8@0.2.1 </tspan>
<tspan x="10" y="1658">│   │   ├─┬ normalize-package-data@2.3.8 </tspan>
<tspan x="10" y="1674">│   │   │ ├── hosted-git-info@2.4.2 </tspan>
<tspan x="10" y="1690">│   │   │ ├─┬ is-builtin-module@1.0.0 </tspan>
<tspan x="10" y="1706">│   │   │ │ └── builtin-modules@1.1.1 </tspan>
<tspan x="10" y="1722">│   │   │ ├── semver@5.3.0 </tspan>
<tspan x="10" y="1738">│   │   │ └─┬ validate-npm-package-license@3.0.1 </tspan>
<tspan x="10" y="1754">│   │   │   ├─┬ spdx-correct@1.0.2 </tspan>
<tspan x="10" y="1770">│   │   │   │ └── spdx-license-ids@1.2.2 </tspan>
<tspan x="10" y="1786">│   │   │   └── spdx-expression-parse@1.0.4 </tspan>
<tspan x="10" y="1802">│   │   └── path-type@1.1.0 </tspan>
<tspan x="10" y="1818">│   ├── require-directory@2.1.1 </tspan>
<tspan x="10" y="1834">│   ├── require-main-filename@1.0.1 </tspan>
<tspan x="10" y="1850">│   ├── set-blocking@2.0.0 </tspan>
<tspan x="10" y="1866">│   ├─┬ string-width@1.0.2 </tspan>
<tspan x="10" y="1882">│   │ ├── code-point-at@1.1.0 </tspan>
<tspan x="10" y="1898">│   │ └─┬ is-fullwidth-code-point@1.0.0 </tspan>
<tspan x="10" y="1914">│   │   └── number-is-nan@1.0.1 </tspan>
<tspan x="10" y="1930">│   ├── which-module@1.0.0 </tspan>
<tspan x="10" y="1946">│   ├── window-size@0.2.0 </tspan>
<tspan x="10" y="1962">│   ├── y18n@3.2.1 </tspan>
<tspan x="10" y="1978">│   └─┬ yargs-parser@2.4.1 </tspan>
<tspan x="10" y="1994">│     └── camelcase@3.0.0 </tspan>
<tspan x="10" y="2010">└── UNMET PEER DEPENDENCY webpack@^1.12.13 || ^2.1.0-beta.15</tspan>
</text>
</svg>
